<mxfile host="app.diagrams.net" modified="2022-04-08T21:57:25.086Z" agent="5.0 (Windows NT 10.0; Win64; x64) AppleWebKit/537.36 (KHTML, like Gecko) Chrome/100.0.4896.75 Safari/537.36" etag="8WK_oc-N7UqlDMilByH8" version="17.4.1" type="github">
  <diagram id="NjX1Zo8XsL4Oa4aeBg3y" name="Page-1">
    <mxGraphModel dx="1673" dy="934" grid="1" gridSize="10" guides="1" tooltips="1" connect="1" arrows="1" fold="1" page="1" pageScale="1" pageWidth="827" pageHeight="1169" math="0" shadow="0">
      <root>
        <mxCell id="0" />
        <mxCell id="1" parent="0" />
        <mxCell id="qBK_3xlZrD0a6Fi8dJcX-9" value="" style="group" vertex="1" connectable="0" parent="1">
          <mxGeometry x="130" y="600" width="60" height="50" as="geometry" />
        </mxCell>
        <mxCell id="qBK_3xlZrD0a6Fi8dJcX-10" value="" style="ellipse;html=1;shape=startState;fillColor=#000000;strokeColor=#ff0000;rounded=1;" vertex="1" parent="qBK_3xlZrD0a6Fi8dJcX-9">
          <mxGeometry x="15" y="20" width="30" height="30" as="geometry" />
        </mxCell>
        <mxCell id="qBK_3xlZrD0a6Fi8dJcX-11" value="Start" style="text;html=1;strokeColor=none;fillColor=none;align=center;verticalAlign=middle;whiteSpace=wrap;rounded=0;" vertex="1" parent="qBK_3xlZrD0a6Fi8dJcX-9">
          <mxGeometry width="60" height="30" as="geometry" />
        </mxCell>
        <mxCell id="qBK_3xlZrD0a6Fi8dJcX-12" value="" style="group" vertex="1" connectable="0" parent="1">
          <mxGeometry x="1020" y="600" width="60" height="50" as="geometry" />
        </mxCell>
        <mxCell id="qBK_3xlZrD0a6Fi8dJcX-13" value="" style="ellipse;html=1;shape=endState;fillColor=#000000;strokeColor=#ff0000;rounded=1;" vertex="1" parent="qBK_3xlZrD0a6Fi8dJcX-12">
          <mxGeometry x="15" y="20" width="30" height="30" as="geometry" />
        </mxCell>
        <mxCell id="qBK_3xlZrD0a6Fi8dJcX-14" value="End" style="text;html=1;strokeColor=none;fillColor=none;align=center;verticalAlign=middle;whiteSpace=wrap;rounded=0;" vertex="1" parent="qBK_3xlZrD0a6Fi8dJcX-12">
          <mxGeometry width="60" height="30" as="geometry" />
        </mxCell>
        <mxCell id="qBK_3xlZrD0a6Fi8dJcX-15" style="edgeStyle=orthogonalEdgeStyle;rounded=0;orthogonalLoop=1;jettySize=auto;html=1;" edge="1" parent="1" source="qBK_3xlZrD0a6Fi8dJcX-10" target="qBK_3xlZrD0a6Fi8dJcX-65">
          <mxGeometry relative="1" as="geometry">
            <mxPoint x="824" y="334.9999999999998" as="targetPoint" />
          </mxGeometry>
        </mxCell>
        <mxCell id="qBK_3xlZrD0a6Fi8dJcX-71" style="edgeStyle=orthogonalEdgeStyle;rounded=0;orthogonalLoop=1;jettySize=auto;html=1;" edge="1" parent="1" source="qBK_3xlZrD0a6Fi8dJcX-40" target="qBK_3xlZrD0a6Fi8dJcX-13">
          <mxGeometry relative="1" as="geometry" />
        </mxCell>
        <mxCell id="qBK_3xlZrD0a6Fi8dJcX-40" value="Finalizar" style="swimlane;fontStyle=0;childLayout=stackLayout;horizontal=1;startSize=30;horizontalStack=0;resizeParent=1;resizeParentMax=0;resizeLast=0;collapsible=1;marginBottom=0;rounded=1;fontSize=13;" vertex="1" parent="1">
          <mxGeometry x="740" y="595" width="180" height="80" as="geometry" />
        </mxCell>
        <mxCell id="qBK_3xlZrD0a6Fi8dJcX-41" value="kill()" style="text;strokeColor=none;fillColor=none;align=left;verticalAlign=top;spacingLeft=4;spacingRight=4;overflow=hidden;points=[[0,0.5],[1,0.5]];portConstraint=eastwest;rotatable=0;fontSize=13;" vertex="1" parent="qBK_3xlZrD0a6Fi8dJcX-40">
          <mxGeometry y="30" width="180" height="50" as="geometry" />
        </mxCell>
        <mxCell id="qBK_3xlZrD0a6Fi8dJcX-69" style="edgeStyle=orthogonalEdgeStyle;rounded=0;orthogonalLoop=1;jettySize=auto;html=1;" edge="1" parent="1" source="qBK_3xlZrD0a6Fi8dJcX-65" target="qBK_3xlZrD0a6Fi8dJcX-67">
          <mxGeometry relative="1" as="geometry" />
        </mxCell>
        <mxCell id="qBK_3xlZrD0a6Fi8dJcX-65" value="Instanciar" style="swimlane;fontStyle=0;childLayout=stackLayout;horizontal=1;startSize=30;horizontalStack=0;resizeParent=1;resizeParentMax=0;resizeLast=0;collapsible=1;marginBottom=0;rounded=1;fontSize=13;" vertex="1" parent="1">
          <mxGeometry x="250" y="595" width="180" height="80" as="geometry" />
        </mxCell>
        <mxCell id="qBK_3xlZrD0a6Fi8dJcX-66" value="new()" style="text;strokeColor=none;fillColor=none;align=left;verticalAlign=top;spacingLeft=4;spacingRight=4;overflow=hidden;points=[[0,0.5],[1,0.5]];portConstraint=eastwest;rotatable=0;fontSize=13;" vertex="1" parent="qBK_3xlZrD0a6Fi8dJcX-65">
          <mxGeometry y="30" width="180" height="50" as="geometry" />
        </mxCell>
        <mxCell id="qBK_3xlZrD0a6Fi8dJcX-70" style="edgeStyle=orthogonalEdgeStyle;rounded=0;orthogonalLoop=1;jettySize=auto;html=1;" edge="1" parent="1" source="qBK_3xlZrD0a6Fi8dJcX-67" target="qBK_3xlZrD0a6Fi8dJcX-40">
          <mxGeometry relative="1" as="geometry" />
        </mxCell>
        <mxCell id="qBK_3xlZrD0a6Fi8dJcX-67" value="Adicionando contato" style="swimlane;fontStyle=0;childLayout=stackLayout;horizontal=1;startSize=30;horizontalStack=0;resizeParent=1;resizeParentMax=0;resizeLast=0;collapsible=1;marginBottom=0;rounded=1;fontSize=13;" vertex="1" parent="1">
          <mxGeometry x="490" y="595" width="180" height="80" as="geometry" />
        </mxCell>
        <mxCell id="qBK_3xlZrD0a6Fi8dJcX-68" value="adicionarContato()" style="text;strokeColor=none;fillColor=none;align=left;verticalAlign=top;spacingLeft=4;spacingRight=4;overflow=hidden;points=[[0,0.5],[1,0.5]];portConstraint=eastwest;rotatable=0;fontSize=13;" vertex="1" parent="qBK_3xlZrD0a6Fi8dJcX-67">
          <mxGeometry y="30" width="180" height="50" as="geometry" />
        </mxCell>
      </root>
    </mxGraphModel>
  </diagram>
</mxfile>
